<?xml version="1.0" encoding="UTF-8"?>
<svg id="uuid-059181f1-0ca6-43cc-9470-01ea7b461ff1" data-name="Layer 2" xmlns="http://www.w3.org/2000/svg" width="128" height="333" xmlns:xlink="http://www.w3.org/1999/xlink" viewBox="0 0 128 333">
  <defs>
    <style>
      .uuid-5490b203-8a9c-45b3-89fe-525597e52397 {
        fill: #fff;
      }

      .uuid-7756e3de-6ff4-4639-97f7-04227770058e {
        fill: none;
      }

      .uuid-347c3d20-c45f-4984-be16-ec8979a04ddd {
        clip-path: url(#uuid-4f647e59-3c4b-4245-b463-7a685a3f7481);
      }
    </style>
    <clipPath id="uuid-4f647e59-3c4b-4245-b463-7a685a3f7481">
      <rect class="uuid-7756e3de-6ff4-4639-97f7-04227770058e" x="-102.5" y="102.5" width="333" height="128" transform="translate(-102.5 230.5) rotate(-90)"/>
    </clipPath>
  </defs>
  <g id="uuid-3ae10440-cf2b-4ce8-82f1-a6c1803a1cf5" data-name="Capa 1">
    <g class="uuid-347c3d20-c45f-4984-be16-ec8979a04ddd">
      <polygon class="uuid-5490b203-8a9c-45b3-89fe-525597e52397" points="2.3 347 1.5 347.6 -400.3 33.1 -399.4 32.4 2.3 347"/>
      <g>
        <g>
          <polygon class="uuid-5490b203-8a9c-45b3-89fe-525597e52397" points="741.7 361.7 740.9 362.3 -43.2 -251.5 -42.3 -252.2 741.7 361.7"/>
          <polygon class="uuid-5490b203-8a9c-45b3-89fe-525597e52397" points="723 376.4 722.1 377 -62 -236.8 -61.1 -237.5 723 376.4"/>
          <polygon class="uuid-5490b203-8a9c-45b3-89fe-525597e52397" points="704.2 391.1 703.3 391.7 -80.8 -222.1 -79.9 -222.8 704.2 391.1"/>
          <polygon class="uuid-5490b203-8a9c-45b3-89fe-525597e52397" points="685.4 405.8 684.5 406.4 -99.5 -207.4 -98.7 -208.1 685.4 405.8"/>
          <polygon class="uuid-5490b203-8a9c-45b3-89fe-525597e52397" points="666.6 420.5 665.8 421.1 -118.3 -192.7 -117.4 -193.4 666.6 420.5"/>
          <polygon class="uuid-5490b203-8a9c-45b3-89fe-525597e52397" points="647.9 435.2 647 435.8 -137.1 -178 -136.2 -178.7 647.9 435.2"/>
          <polygon class="uuid-5490b203-8a9c-45b3-89fe-525597e52397" points="629.1 449.9 628.2 450.5 -155.9 -163.3 -155 -164 629.1 449.9"/>
          <polygon class="uuid-5490b203-8a9c-45b3-89fe-525597e52397" points="610.3 464.6 609.4 465.2 -174.6 -148.6 -173.8 -149.3 610.3 464.6"/>
          <polygon class="uuid-5490b203-8a9c-45b3-89fe-525597e52397" points="591.5 479.3 590.7 479.9 -193.4 -133.9 -192.5 -134.6 591.5 479.3"/>
          <polygon class="uuid-5490b203-8a9c-45b3-89fe-525597e52397" points="572.7 494 571.9 494.6 -212.2 -119.2 -211.3 -119.9 572.7 494"/>
          <polygon class="uuid-5490b203-8a9c-45b3-89fe-525597e52397" points="554 508.7 553.1 509.3 -231 -104.5 -230.1 -105.2 554 508.7"/>
          <polygon class="uuid-5490b203-8a9c-45b3-89fe-525597e52397" points="535.2 523.4 534.3 524 -249.7 -89.8 -248.9 -90.5 535.2 523.4"/>
          <polygon class="uuid-5490b203-8a9c-45b3-89fe-525597e52397" points="516.4 538.1 515.6 538.7 -268.5 -75.1 -267.6 -75.8 516.4 538.1"/>
          <polygon class="uuid-5490b203-8a9c-45b3-89fe-525597e52397" points="497.6 552.8 496.8 553.4 -287.3 -60.4 -286.4 -61.1 497.6 552.8"/>
          <polygon class="uuid-5490b203-8a9c-45b3-89fe-525597e52397" points="478.9 567.5 478 568.1 -306.1 -45.7 -305.2 -46.4 478.9 567.5"/>
          <polygon class="uuid-5490b203-8a9c-45b3-89fe-525597e52397" points="460.1 582.2 459.2 582.8 -324.8 -31 -324 -31.7 460.1 582.2"/>
          <polygon class="uuid-5490b203-8a9c-45b3-89fe-525597e52397" points="441.3 596.9 440.5 597.5 -343.6 -16.3 -342.7 -17 441.3 596.9"/>
          <polygon class="uuid-5490b203-8a9c-45b3-89fe-525597e52397" points="422.5 611.6 421.7 612.2 -362.4 -1.6 -361.5 -2.3 422.5 611.6"/>
          <polygon class="uuid-5490b203-8a9c-45b3-89fe-525597e52397" points="403.8 626.3 402.9 626.9 -381.2 13.1 -380.3 12.4 403.8 626.3"/>
        </g>
        <g>
          <polygon class="uuid-5490b203-8a9c-45b3-89fe-525597e52397" points="478.9 1.2 478 1.9 76.2 -312.7 77.1 -313.3 478.9 1.2"/>
          <polygon class="uuid-5490b203-8a9c-45b3-89fe-525597e52397" points="460.1 15.9 459.2 16.6 57.5 -298 58.3 -298.6 460.1 15.9"/>
          <polygon class="uuid-5490b203-8a9c-45b3-89fe-525597e52397" points="441.3 30.6 440.5 31.3 38.7 -283.3 39.6 -283.9 441.3 30.6"/>
          <polygon class="uuid-5490b203-8a9c-45b3-89fe-525597e52397" points="422.5 45.3 421.7 46 19.9 -268.6 20.8 -269.2 422.5 45.3"/>
          <polygon class="uuid-5490b203-8a9c-45b3-89fe-525597e52397" points="403.8 60 402.9 60.7 1.1 -253.9 2 -254.5 403.8 60"/>
        </g>
      </g>
    </g>
  </g>
</svg>