<?xml version="1.0" encoding="UTF-8"?>
<svg id="uuid-0be03257-0f7a-4b4b-84ff-a094d3a0b5d2" data-name="Layer 2" xmlns="http://www.w3.org/2000/svg" width="190" height="80" xmlns:xlink="http://www.w3.org/1999/xlink" viewBox="0 0 190 80">
  <defs>
    <style>
      .uuid-6baa7e38-d21d-4f4c-8917-2fd4f9d20a00 {
        clip-path: url(#uuid-b9d7e622-a875-4b5c-bbdd-9d266f92c472);
      }

      .uuid-a223f055-d787-4431-ae8f-6df9e1139cb5 {
        fill: none;
      }
    </style>
    <clipPath id="uuid-b9d7e622-a875-4b5c-bbdd-9d266f92c472">
      <rect class="uuid-a223f055-d787-4431-ae8f-6df9e1139cb5" width="190" height="80"/>
    </clipPath>
  </defs>
  <g id="uuid-c9c0ae16-1222-4641-afa7-63cbe85aed18" data-name="Capa 1">
    <g class="uuid-6baa7e38-d21d-4f4c-8917-2fd4f9d20a00">
      <g>
        <g>
          <polygon points="-154 582 -154.6 581.3 405.6 -87 406.2 -86.3 -154 582"/>
          <polygon points="-167.4 566 -168 565.3 392.2 -103 392.8 -102.3 -167.4 566"/>
          <polygon points="-180.8 550 -181.5 549.3 378.8 -119 379.4 -118.3 -180.8 550"/>
          <polygon points="-194.3 534 -194.9 533.3 365.3 -135.1 366 -134.3 -194.3 534"/>
          <polygon points="-207.7 518 -208.3 517.3 351.9 -151.1 352.5 -150.3 -207.7 518"/>
          <polygon points="-221.1 502 -221.7 501.3 338.5 -167.1 339.1 -166.3 -221.1 502"/>
          <polygon points="-234.5 486 -235.1 485.3 325.1 -183.1 325.7 -182.3 -234.5 486"/>
          <polygon points="-247.9 470 -248.5 469.3 311.7 -199.1 312.3 -198.3 -247.9 470"/>
          <polygon points="-261.3 454 -261.9 453.3 298.3 -215.1 298.9 -214.3 -261.3 454"/>
          <polygon points="-274.7 438 -275.4 437.3 284.8 -231.1 285.5 -230.3 -274.7 438"/>
          <polygon points="-288.2 422 -288.8 421.2 271.4 -247.1 272 -246.3 -288.2 422"/>
          <polygon points="-301.6 406 -302.2 405.2 258 -263.1 258.6 -262.3 -301.6 406"/>
          <polygon points="-315 390 -315.6 389.2 244.6 -279.1 245.2 -278.3 -315 390"/>
          <polygon points="-328.4 374 -329 373.2 231.2 -295.1 231.8 -294.4 -328.4 374"/>
          <polygon points="-341.8 358 -342.4 357.2 217.8 -311.1 218.4 -310.4 -341.8 358"/>
          <polygon points="-355.2 342 -355.9 341.2 204.4 -327.1 205 -326.4 -355.2 342"/>
          <polygon points="-368.7 326 -369.3 325.2 190.9 -343.1 191.6 -342.4 -368.7 326"/>
          <polygon points="-382.1 310 -382.7 309.2 177.5 -359.1 178.1 -358.4 -382.1 310"/>
          <polygon points="-395.5 294 -396.1 293.2 164.1 -375.1 164.7 -374.4 -395.5 294"/>
        </g>
        <g>
          <polygon points="188.3 374 187.7 373.2 474.8 30.8 475.4 31.5 188.3 374"/>
          <polygon points="174.9 358 174.3 357.2 461.3 14.8 462 15.5 174.9 358"/>
          <polygon points="161.5 342 160.9 341.2 447.9 -1.2 448.5 -.5 161.5 342"/>
          <polygon points="148.1 326 147.5 325.2 434.5 -17.2 435.1 -16.5 148.1 326"/>
          <polygon points="134.7 310 134 309.2 421.1 -33.2 421.7 -32.5 134.7 310"/>
          <polygon points="121.2 294 120.6 293.2 407.7 -49.2 408.3 -48.5 121.2 294"/>
        </g>
      </g>
    </g>
  </g>
</svg>